<svg viewBox="0 0 62.722 15.189" xmlns="http://www.w3.org/2000/svg" font-family="sans-serif"><g transform="translate(-22.078 -77.479)"><rect width="15.713" height="9.728" x="23.21" y="81.807" ry="1.5" fill="none" stroke="#000" stroke-width=".265"/><text style="line-height:1.5" x="31.042" y="85.9" font-weight="400" font-size="1.764" stroke-width=".265"><tspan style="text-align:center" x="31.042" y="85.9" text-anchor="middle">313,248 games</tspan><tspan style="text-align:center" x="31.042" y="88.546" text-anchor="middle">1,229 MB</tspan></text><text style="line-height:1.5" x="31.06" y="79.819" font-weight="400" font-size="1.764" stroke-width=".265"><tspan style="text-align:center" x="31.06" y="79.819" text-anchor="middle">Downloaded</tspan></text><text style="line-height:1.5" x="53.415" y="85.99" font-weight="400" font-size="1.764" stroke-width=".265"><tspan style="text-align:center" x="53.415" y="85.99" text-anchor="middle">313,248 games</tspan><tspan style="text-align:center" x="53.415" y="88.636" text-anchor="middle">48 MB</tspan></text><text style="line-height:1.5" x="75.79" y="85.99" font-weight="400" font-size="1.764" stroke-width=".265"><tspan style="text-align:center" x="75.79" y="85.99" text-anchor="middle">23,530 games</tspan><tspan style="text-align:center" x="75.79" y="88.636" text-anchor="middle">8.5 MB</tspan></text><g stroke="#000"><path d="M38.923 86.671h6.66" fill="none" stroke-width=".265"/><path d="M43.107 86.67l-1.709-.683.342.683-.342.685zm0 0" stroke-width=".293" stroke-linecap="round" stroke-linejoin="round" stroke-miterlimit="10"/></g><rect width="15.713" height="9.728" x="45.583" y="81.807" ry="1.5" fill="none" stroke="#000" stroke-width=".265"/><g stroke="#000"><path d="M61.295 86.671h6.66" fill="none" stroke-width=".265"/><path d="M65.48 86.67l-1.71-.683.343.683-.342.685zm0 0" stroke-width=".293" stroke-linecap="round" stroke-linejoin="round" stroke-miterlimit="10"/></g><rect width="15.713" height="9.728" x="67.955" y="81.807" ry="1.5" fill="none" stroke="#000" stroke-width=".265"/><text style="line-height:1.5" x="53.469" y="79.819" font-weight="400" font-size="1.764" stroke-width=".265"><tspan style="text-align:center" x="53.469" y="79.819" text-anchor="middle">Consolidated</tspan></text><text style="line-height:1.5" x="75.842" y="79.819" font-weight="400" font-size="1.764" stroke-width=".265"><tspan style="text-align:center" x="75.842" y="79.819" text-anchor="middle">Cleaned</tspan></text></g></svg>